# xmcd CD database file
#
# Track frame offsets:
#	183
#	19060
#	52908
#	81185
#	92593
#	113938
#	131853
#	153433
#	185723
#
# Disc length: 2857 seconds
#
# Revision: 0
# Processed by: cddbd v1.4PL0 Copyright (c) Steve Scherf et al.
# Submitted via: CDex 1.50
#
DISCID=710b2709
DTITLE=Lightnin' Hopkins - Take It Easy
DYEAR=1960
DGENRE=Blues
TTITLE0=Black Cat Blues
TTITLE1=Mister Charlie
TTITLE2=Wonder Why
TTITLE3=Lightnin's Piano Boogie
TTITLE4=The Trouble Blues
TTITLE5=I've Had My Fun If I Don't Get Well No More
TTITLE6=Your Own Fault, Baby, To Treat Me The Way You Do
TTITLE7=Mighty Crazy
TTITLE8=Take It Easy
EXTD=
EXTT0=
EXTT1=
EXTT2=
EXTT3=
EXTT4=
EXTT5=
EXTT6=
EXTT7=
EXTT8=
PLAYORDER=
